<svg width="369" height="367" fill="none" xmlns="http://www.w3.org/2000/svg"><path opacity=".94" fill-rule="evenodd" clip-rule="evenodd" d="M231.328 268.539h79.375v25.127h-79.375v45.324h92.761v25.597h-123.29V200.201h120.002v25.597h-89.473v42.741zm2-40.741h89.473v-29.597H198.799v168.386h127.29V336.99h-92.761v-41.324h79.375v-29.127h-79.375v-38.741zM6.783 364.587h71.86c17.848 0 33.504-3.444 46.968-10.333 13.464-6.888 23.953-16.438 31.468-28.65 7.515-12.368 11.272-26.771 11.272-43.21 0-16.595-3.757-30.998-11.272-43.21-7.515-12.212-18.004-21.762-31.468-28.65-13.464-6.889-29.12-10.333-46.968-10.333H6.783v164.386zm70.451-25.832H37.312V226.033h39.922c12.368 0 23.014 2.349 31.938 7.045 9.08 4.697 16.047 11.272 20.901 19.727 5.009 8.297 7.514 18.16 7.514 29.589 0 11.272-2.505 21.136-7.514 29.59-4.854 8.454-11.821 15.029-20.901 19.726-8.924 4.697-19.57 7.045-31.938 7.045zM39.312 228.033h37.922c12.116 0 22.428 2.3 31.007 6.815l.006.003.006.004c8.757 4.529 15.433 10.841 20.085 18.945l.011.019.011.019c4.791 7.934 7.227 17.426 7.227 28.556 0 10.967-2.434 20.468-7.235 28.57l-.007.012-.007.012c-4.652 8.104-11.328 14.416-20.085 18.946l-.006.003-.006.003c-8.579 4.515-18.89 6.815-31.007 6.815H39.312V228.033zM4.783 366.587V198.201h73.86c18.108 0 34.086 3.496 47.879 10.552 13.771 7.046 24.543 16.842 32.26 29.383 7.738 12.574 11.569 27.352 11.569 44.258 0 16.754-3.833 31.527-11.563 44.249l-.006.009c-7.717 12.541-18.489 22.337-32.26 29.383-13.793 7.057-29.771 10.552-47.879 10.552H4.783zm198.052-198V.201h73.861c18.107 0 34.085 3.496 47.878 10.552 13.772 7.046 24.543 16.842 32.261 29.383 7.737 12.573 11.569 27.352 11.569 44.258 0 16.754-3.834 31.527-11.563 44.249l-.006.009c-7.718 12.541-18.489 22.337-32.261 29.383-13.793 7.057-29.771 10.552-47.878 10.552h-73.861zm103.464-36.65l.007-.003c8.756-4.53 15.432-10.842 20.084-18.946l.007-.012.007-.012c4.802-8.102 7.236-17.603 7.236-28.57 0-11.13-2.437-20.622-7.227-28.556l-.012-.019-.011-.019c-4.652-8.104-11.328-14.416-20.084-18.945l-.007-.004-.006-.003c-8.579-4.515-18.89-6.815-31.006-6.815h-37.923v108.722h37.923c12.116 0 22.427-2.3 31.006-6.815l.006-.003zm-70.935 8.818V28.033h39.923c12.368 0 23.014 2.348 31.937 7.045 9.081 4.697 16.048 11.272 20.901 19.727 5.01 8.297 7.515 18.16 7.515 29.59 0 11.271-2.505 21.135-7.515 29.589-4.853 8.454-11.82 15.029-20.901 19.726-8.923 4.697-19.569 7.045-31.937 7.045h-39.923zm-30.529 25.832h71.861c17.847 0 33.503-3.444 46.967-10.333 13.464-6.888 23.954-16.438 31.468-28.65 7.515-12.368 11.273-26.771 11.273-43.21 0-16.595-3.758-30.998-11.273-43.21-7.514-12.211-18.004-21.762-31.468-28.65C310.199 5.645 294.543 2.2 276.696 2.2h-71.861v164.386zm-204.647 2L62.62 82.665 3.507.2h39.44l41.039 56.945L124.493.2h38.063l-58.962 81.363 63.194 87.023h-40.179L82.96 107.479l-43.053 61.108H.188zm82.761-64.564l44.689 62.564h35.226l-61.74-85.022L158.637 2.2h-33.113L83.996 60.58 41.922 2.2H7.402l57.684 80.471-60.972 83.915H38.87l44.079-62.564z" fill="#E2E2E2"/></svg>