<svg width="42" height="46" fill="none" xmlns="http://www.w3.org/2000/svg"><ellipse cx="21" cy="23" rx="21" ry="22.5" fill="url(#paint0_linear_72_3)"/><path d="M27.54 18.521c1.09 1.274 2.034 2.246 2.83 2.914.795.659 1.546 1.15 2.251 1.476v.593c-.812.422-1.6.963-2.362 1.622-.763.65-1.674 1.608-2.732 2.874h-.947c.771-1.767 1.579-3.125 2.424-4.074H9.378v-1.331h19.626c-.623-.853-1.058-1.486-1.304-1.899-.247-.413-.611-1.138-1.095-2.175h.935z" fill="#fff"/><defs><linearGradient id="paint0_linear_72_3" x1="7.142" y1="41.211" x2="39.348" y2="5.597" gradientUnits="userSpaceOnUse"><stop stop-color="#6F03BC"/><stop offset="1" stop-color="#EF01E7"/></linearGradient></defs></svg>