<svg width="112" height="14" fill="none" xmlns="http://www.w3.org/2000/svg"><path d="M103.281 13.582V1.118h8.165v2.737h-4.788V5.85h4.506v2.7h-4.506v2.294h5.052v2.737h-8.429zM88.353 1.118h3.687l1.347 4.895c.413 1.47.759 2.927 1.038 4.372h.036c.14-.729.304-1.47.492-2.222.164-.68.343-1.376.537-2.087l1.356-4.958h3.587l-4.106 12.464H92.34L88.353 1.118z" fill="#fff"/><path d="M75.483 13.528l3.65-12.464h4.479c.036 0 .154.355.355 1.066l3.432 11.416-.019.018h-3.623c-.024 0-.121-.34-.291-1.02l-.528-1.888h-2.53v-.018l.5-2.457h1.566l-1.21-4.697h-.02l-2.257 10.062-.018.018h-3.45l-.037-.036z" fill="#EF01E7"/><path d="M57.005 1.118h3.613l1.066 6.855.3 2.15h.036c.097-.657.216-1.38.355-2.168.097-.656.228-1.412.392-2.267l.8-4.57h3.597l.783 4.787c.109.692.209 1.382.3 2.068.085.614.17 1.3.255 2.06h.036l.638-4.345.746-4.57h3.414L70.24 13.582h-3.678l-.838-4.886a57.904 57.904 0 01-.518-3.73h-.037l-.155 1.047a25.74 25.74 0 01-.145.949 27.945 27.945 0 01-.3 1.734l-.947 4.886H59.89L57.004 1.118zM42.488 13.582V1.118h6.208v.74H43.38v4.788h5.016v.74H43.38v5.455h5.617v.741h-6.51zm-9.848 0V1.118h.892V12.84h5.598v.741h-6.49zM20.543 1.118h.983l2.822 5.085c.261.482.489.918.683 1.31h.036c.164-.356.383-.786.656-1.292.097-.163.227-.391.391-.686l2.558-4.417h.983l-4.233 7.081v5.383h-.892V8.181l-3.987-7.063zm-11.396.741v-.741h9.103v.74h-4.105v11.724h-.892V1.86H9.147zM0 12.932l.337-.723c.795.542 1.708.816 2.74.822 2.027 0 3.04-.864 3.04-2.592 0-1.295-.852-2.264-2.558-2.908-1.056-.38-1.845-.834-2.366-1.364C.623 5.6.337 4.908.337 4.089c0-.915.343-1.673 1.028-2.276.686-.59 1.56-.885 2.622-.885.546 0 1.056.063 1.53.19.4.096.725.226.974.388l-.337.759a3.042 3.042 0 00-.82-.388 4.73 4.73 0 00-1.401-.208c-.923 0-1.63.259-2.121.777-.401.421-.601.92-.601 1.499 0 1.174.87 2.098 2.612 2.773 1.093.445 1.882.921 2.367 1.427.534.578.801 1.312.801 2.204 0 .963-.33 1.758-.992 2.384-.716.686-1.702 1.03-2.959 1.03h-.036c-1.244 0-2.245-.277-3.004-.831z" fill="#fff"/></svg>