<?xml version="1.0" encoding="utf-8"?><svg viewBox="0 0 369 367" xmlns="http://www.w3.org/2000/svg" xmlns:xlink="http://www.w3.org/1999/xlink"><style>:root>svg{display:none}:root>svg:target{display:block}</style><svg fill="none" viewBox="0 0 369 367" id="big" xmlns="http://www.w3.org/2000/svg"><path opacity=".94" fill-rule="evenodd" clip-rule="evenodd" d="M231.328 268.539h79.375v25.127h-79.375v45.324h92.761v25.597h-123.29V200.201h120.002v25.597h-89.473v42.741zm2-40.741h89.473v-29.597H198.799v168.386h127.29V336.99h-92.761v-41.324h79.375v-29.127h-79.375v-38.741zM6.783 364.587h71.86c17.848 0 33.504-3.444 46.968-10.333 13.464-6.888 23.953-16.438 31.468-28.65 7.515-12.368 11.272-26.771 11.272-43.21 0-16.595-3.757-30.998-11.272-43.21-7.515-12.212-18.004-21.762-31.468-28.65-13.464-6.889-29.12-10.333-46.968-10.333H6.783v164.386zm70.451-25.832H37.312V226.033h39.922c12.368 0 23.014 2.349 31.938 7.045 9.08 4.697 16.047 11.272 20.901 19.727 5.009 8.297 7.514 18.16 7.514 29.589 0 11.272-2.505 21.136-7.514 29.59-4.854 8.454-11.821 15.029-20.901 19.726-8.924 4.697-19.57 7.045-31.938 7.045zM39.312 228.033h37.922c12.116 0 22.428 2.3 31.007 6.815l.006.003.006.004c8.757 4.529 15.433 10.841 20.085 18.945l.011.019.011.019c4.791 7.934 7.227 17.426 7.227 28.556 0 10.967-2.434 20.468-7.235 28.57l-.007.012-.007.012c-4.652 8.104-11.328 14.416-20.085 18.946l-.006.003-.006.003c-8.579 4.515-18.89 6.815-31.007 6.815H39.312V228.033zM4.783 366.587V198.201h73.86c18.108 0 34.086 3.496 47.879 10.552 13.771 7.046 24.543 16.842 32.26 29.383 7.738 12.574 11.569 27.352 11.569 44.258 0 16.754-3.833 31.527-11.563 44.249l-.006.009c-7.717 12.541-18.489 22.337-32.26 29.383-13.793 7.057-29.771 10.552-47.879 10.552H4.783zm198.052-198V.201h73.861c18.107 0 34.085 3.496 47.878 10.552 13.772 7.046 24.543 16.842 32.261 29.383 7.737 12.573 11.569 27.352 11.569 44.258 0 16.754-3.834 31.527-11.563 44.249l-.006.009c-7.718 12.541-18.489 22.337-32.261 29.383-13.793 7.057-29.771 10.552-47.878 10.552h-73.861zm103.464-36.65.007-.003c8.756-4.53 15.432-10.842 20.084-18.946l.007-.012.007-.012c4.802-8.102 7.236-17.603 7.236-28.57 0-11.13-2.437-20.622-7.227-28.556l-.012-.019-.011-.019c-4.652-8.104-11.328-14.416-20.084-18.945l-.007-.004-.006-.003c-8.579-4.515-18.89-6.815-31.006-6.815h-37.923v108.722h37.923c12.116 0 22.427-2.3 31.006-6.815l.006-.003zm-70.935 8.818V28.033h39.923c12.368 0 23.014 2.348 31.937 7.045 9.081 4.697 16.048 11.272 20.901 19.727 5.01 8.297 7.515 18.16 7.515 29.59 0 11.271-2.505 21.135-7.515 29.589-4.853 8.454-11.82 15.029-20.901 19.726-8.923 4.697-19.569 7.045-31.937 7.045h-39.923zm-30.529 25.832h71.861c17.847 0 33.503-3.444 46.967-10.333 13.464-6.888 23.954-16.438 31.468-28.65 7.515-12.368 11.273-26.771 11.273-43.21 0-16.595-3.758-30.998-11.273-43.21-7.514-12.211-18.004-21.762-31.468-28.65C310.199 5.645 294.543 2.2 276.696 2.2h-71.861v164.386zm-204.647 2L62.62 82.665 3.507.2h39.44l41.039 56.945L124.493.2h38.063l-58.962 81.363 63.194 87.023h-40.179L82.96 107.479l-43.053 61.108H.188zm82.761-64.564 44.689 62.564h35.226l-61.74-85.022L158.637 2.2h-33.113L83.996 60.58 41.922 2.2H7.402l57.684 80.471-60.972 83.915H38.87l44.079-62.564z" fill="#E2E2E2"/></svg><svg fill="none" viewBox="0 0 42 46" id="fiol" xmlns="http://www.w3.org/2000/svg"><ellipse cx="21" cy="23" rx="21" ry="22.5" fill="url(#paint0_linear_72_3)"/><path d="M27.54 18.521c1.09 1.274 2.034 2.246 2.83 2.914.795.659 1.546 1.15 2.251 1.476v.593c-.812.422-1.6.963-2.362 1.622-.763.65-1.674 1.608-2.732 2.874h-.947c.771-1.767 1.579-3.125 2.424-4.074H9.378v-1.331h19.626c-.623-.853-1.058-1.486-1.304-1.899-.247-.413-.611-1.138-1.095-2.175h.935z" fill="#fff"/><defs><linearGradient id="paint0_linear_72_3" x1="7.142" y1="41.211" x2="39.348" y2="5.597" gradientUnits="userSpaceOnUse"><stop stop-color="#6F03BC"/><stop offset="1" stop-color="#EF01E7"/></linearGradient></defs></svg><svg fill="none" viewBox="0 0 112 14" id="logo" xmlns="http://www.w3.org/2000/svg"><path d="M103.281 13.582V1.118h8.165v2.737h-4.788V5.85h4.506v2.7h-4.506v2.294h5.052v2.737h-8.429zM88.353 1.118h3.687l1.347 4.895c.413 1.47.759 2.927 1.038 4.372h.036c.14-.729.304-1.47.492-2.222.164-.68.343-1.376.537-2.087l1.356-4.958h3.587l-4.106 12.464H92.34L88.353 1.118z" fill="#fff"/><path d="m75.483 13.528 3.65-12.464h4.479c.036 0 .154.355.355 1.066l3.432 11.416-.019.018h-3.623c-.024 0-.121-.34-.291-1.02l-.528-1.888h-2.53v-.018l.5-2.457h1.566l-1.21-4.697h-.02l-2.257 10.062-.018.018h-3.45l-.037-.036z" fill="#EF01E7"/><path d="M57.005 1.118h3.613l1.066 6.855.3 2.15h.036c.097-.657.216-1.38.355-2.168.097-.656.228-1.412.392-2.267l.8-4.57h3.597l.783 4.787c.109.692.209 1.382.3 2.068.085.614.17 1.3.255 2.06h.036l.638-4.345.746-4.57h3.414L70.24 13.582h-3.678l-.838-4.886a57.904 57.904 0 0 1-.518-3.73h-.037l-.155 1.047a25.74 25.74 0 0 1-.145.949 27.945 27.945 0 0 1-.3 1.734l-.947 4.886H59.89L57.004 1.118zM42.488 13.582V1.118h6.208v.74H43.38v4.788h5.016v.74H43.38v5.455h5.617v.741h-6.51zm-9.848 0V1.118h.892V12.84h5.598v.741h-6.49zM20.543 1.118h.983l2.822 5.085c.261.482.489.918.683 1.31h.036c.164-.356.383-.786.656-1.292.097-.163.227-.391.391-.686l2.558-4.417h.983l-4.233 7.081v5.383h-.892V8.181l-3.987-7.063zm-11.396.741v-.741h9.103v.74h-4.105v11.724h-.892V1.86H9.147zM0 12.932l.337-.723c.795.542 1.708.816 2.74.822 2.027 0 3.04-.864 3.04-2.592 0-1.295-.852-2.264-2.558-2.908-1.056-.38-1.845-.834-2.366-1.364C.623 5.6.337 4.908.337 4.089c0-.915.343-1.673 1.028-2.276.686-.59 1.56-.885 2.622-.885.546 0 1.056.063 1.53.19.4.096.725.226.974.388l-.337.759a3.042 3.042 0 0 0-.82-.388 4.73 4.73 0 0 0-1.401-.208c-.923 0-1.63.259-2.121.777-.401.421-.601.92-.601 1.499 0 1.174.87 2.098 2.612 2.773 1.093.445 1.882.921 2.367 1.427.534.578.801 1.312.801 2.204 0 .963-.33 1.758-.992 2.384-.716.686-1.702 1.03-2.959 1.03h-.036c-1.244 0-2.245-.277-3.004-.831z" fill="#fff"/></svg></svg>