<svg width="369" height="367" viewBox="0 0 369 367" fill="none" xmlns="http://www.w3.org/2000/svg">
<path opacity="0.94" fill-rule="evenodd" clip-rule="evenodd" d="M231.328 268.539H310.703V293.666H231.328V338.99H324.089V364.587H200.799V200.201H320.801V225.798H231.328V268.539ZM233.328 227.798H322.801V198.201H198.799V366.587H326.089V336.99H233.328V295.666H312.703V266.539H233.328V227.798Z" fill="#E2E2E2"/>
<path opacity="0.94" fill-rule="evenodd" clip-rule="evenodd" d="M6.78296 364.587H78.6432C96.4909 364.587 112.147 361.143 125.611 354.254C139.075 347.366 149.564 337.816 157.079 325.604C164.594 313.236 168.351 298.833 168.351 282.394C168.351 265.799 164.594 251.396 157.079 239.184C149.564 226.972 139.075 217.422 125.611 210.534C112.147 203.645 96.4909 200.201 78.6432 200.201H6.78296V364.587ZM77.2342 338.755H37.3118V226.033H77.2342C89.6023 226.033 100.248 228.382 109.172 233.078C118.252 237.775 125.219 244.35 130.073 252.805C135.082 261.102 137.587 270.965 137.587 282.394C137.587 293.666 135.082 303.53 130.073 311.984C125.219 320.438 118.252 327.013 109.172 331.71C100.248 336.407 89.6023 338.755 77.2342 338.755ZM39.3118 228.033H77.2342C89.3503 228.033 99.662 230.333 108.241 234.848L108.247 234.851L108.253 234.855C117.01 239.384 123.686 245.696 128.338 253.8L128.349 253.819L128.36 253.838C133.151 261.772 135.587 271.264 135.587 282.394C135.587 293.361 133.153 302.862 128.352 310.964L128.345 310.976L128.338 310.988C123.686 319.092 117.01 325.404 108.253 329.934L108.247 329.937L108.241 329.94C99.662 334.455 89.3503 336.755 77.2342 336.755H39.3118V228.033ZM4.78296 366.587V198.201H78.6432C96.7508 198.201 112.729 201.697 126.522 208.753C140.293 215.799 151.065 225.595 158.782 238.136C166.52 250.71 170.351 265.488 170.351 282.394C170.351 299.148 166.518 313.921 158.788 326.643L158.782 326.652C151.065 339.193 140.293 348.989 126.522 356.035C112.729 363.092 96.7508 366.587 78.6432 366.587H4.78296Z" fill="#E2E2E2"/>
<path opacity="0.94" fill-rule="evenodd" clip-rule="evenodd" d="M202.835 168.587V0.201019H276.696C294.803 0.201019 310.781 3.6967 324.574 10.7534C338.346 17.7993 349.117 27.5948 356.835 40.1358C364.572 52.7095 368.404 67.4881 368.404 84.3941C368.404 101.148 364.57 115.921 356.841 128.643L356.835 128.652C349.117 141.193 338.346 150.989 324.574 158.035C310.781 165.092 294.803 168.587 276.696 168.587H202.835ZM306.299 131.937L306.306 131.934C315.062 127.404 321.738 121.092 326.39 112.988L326.397 112.976L326.404 112.964C331.206 104.862 333.64 95.3612 333.64 84.3941C333.64 73.2638 331.203 63.772 326.413 55.8384L326.401 55.8195L326.39 55.8003C321.738 47.696 315.062 41.384 306.306 36.8547L306.299 36.8514L306.293 36.8481C297.714 32.333 287.403 30.0331 275.287 30.0331H237.364V138.755H275.287C287.403 138.755 297.714 136.455 306.293 131.94L306.299 131.937ZM235.364 140.755V28.0331H275.287C287.655 28.0331 298.301 30.3815 307.224 35.0783C316.305 39.775 323.272 46.3505 328.125 54.8046C333.135 63.1022 335.64 72.9654 335.64 84.3941C335.64 95.6663 333.135 105.53 328.125 113.984C323.272 122.438 316.305 129.013 307.224 133.71C298.301 138.407 287.655 140.755 275.287 140.755H235.364ZM204.835 166.587H276.696C294.543 166.587 310.199 163.143 323.663 156.254C337.127 149.366 347.617 139.816 355.131 127.604C362.646 115.236 366.404 100.833 366.404 84.3941C366.404 67.799 362.646 53.3956 355.131 41.184C347.617 28.9725 337.127 19.4224 323.663 12.5339C310.199 5.6453 294.543 2.20102 276.696 2.20102H204.835V166.587Z" fill="#E2E2E2"/>
<path opacity="0.94" fill-rule="evenodd" clip-rule="evenodd" d="M0.18811 168.587L62.6197 82.6645L3.50679 0.201019H42.9462L83.9857 57.1457L124.493 0.201019H162.556L103.594 81.5636L166.788 168.587H126.609L82.9602 107.479L39.9069 168.587H0.18811ZM82.949 104.023L127.638 166.587H162.864L101.124 81.5648L158.637 2.20102H125.524L83.9963 60.5812L41.9223 2.20102H7.40124L65.0861 82.6724L4.11352 166.587H38.8695L82.949 104.023Z" fill="#E2E2E2"/>
</svg>
