<svg width="42" height="46" viewBox="0 0 42 46" fill="none" xmlns="http://www.w3.org/2000/svg">
<ellipse cx="21" cy="23" rx="21" ry="22.5" fill="url(#paint0_linear_72_3)"/>
<path d="M27.5396 18.521C28.6307 19.7954 29.574 20.7666 30.3697 21.4346C31.1654 22.0938 31.916 22.5859 32.6215 22.9111V23.5044C31.8094 23.9263 31.0219 24.4668 30.259 25.126C29.4961 25.7764 28.5855 26.7344 27.5273 28H26.5799C27.351 26.2334 28.159 24.8755 29.0039 23.9263H9.37793V22.5947H29.0039C28.3805 21.7422 27.9457 21.1094 27.6996 20.6963C27.4535 20.2832 27.0885 19.5581 26.6045 18.521H27.5396Z" fill="white"/>
<defs>
<linearGradient id="paint0_linear_72_3" x1="7.1417" y1="41.2106" x2="39.3481" y2="5.59688" gradientUnits="userSpaceOnUse">
<stop stop-color="#6F03BC"/>
<stop offset="1" stop-color="#EF01E7"/>
</linearGradient>
</defs>
</svg>
