<svg width="112" height="14" viewBox="0 0 112 14" fill="none" xmlns="http://www.w3.org/2000/svg">
<path d="M103.281 13.5821V1.11792H111.446V3.85461H106.658V5.85069H111.164V8.55125H106.658V10.8454H111.71V13.5821H103.281Z" fill="white"/>
<path d="M88.353 1.11792H92.0398L93.3871 6.01326C93.7998 7.48247 94.1457 8.93963 94.4249 10.3847H94.4613C94.6008 9.65617 94.7647 8.91554 94.9528 8.16288C95.1167 7.48247 95.2957 6.787 95.4899 6.07649L96.8463 1.11792H100.433L96.3274 13.5821H92.3402L88.353 1.11792Z" fill="white"/>
<path d="M75.4825 13.5279L79.1329 1.06375H83.6117C83.6481 1.06375 83.7664 1.41901 83.9667 2.12953L87.3986 13.546L87.3804 13.564H83.7573C83.7331 13.564 83.636 13.2238 83.466 12.5434L82.9381 10.6557H80.4074V10.6377L80.908 8.18096H82.4738L81.2631 3.48433H81.2449L78.9873 13.546L78.9691 13.564H75.519L75.4825 13.5279Z" fill="#EF01E7"/>
<path d="M57.0045 1.11792H60.6185L61.6836 7.9732L61.984 10.1228H62.0204C62.1175 9.46649 62.2358 8.74393 62.3754 7.95514C62.4725 7.29882 62.603 6.54314 62.7668 5.68811L63.5679 1.11792H67.1637L67.9466 5.90488C68.0558 6.59733 68.1559 7.28677 68.247 7.9732C68.3319 8.58738 68.4169 9.27381 68.5018 10.0325H68.5383L69.1755 5.68811L69.9219 1.11792H73.3356L70.2406 13.5821H66.5629L65.7254 8.69576C65.5251 7.55171 65.3521 6.30831 65.2065 4.96555H65.1701L65.0153 6.01326C64.9668 6.36852 64.9182 6.68464 64.8697 6.96162C64.7726 7.62999 64.6724 8.20804 64.5693 8.69576L63.6225 13.5821H59.8902L57.0045 1.11792Z" fill="white"/>
<path d="M42.4878 13.5821V1.11792H48.6962V1.85854H43.3799V6.6455H48.3958V7.38612H43.3799V12.8414H48.9966V13.5821H42.4878Z" fill="white"/>
<path d="M32.6398 13.5821V1.11792H33.5319V12.8414H39.1303V13.5821H32.6398Z" fill="white"/>
<path d="M20.543 1.11792H21.5261L24.3481 6.20293C24.6091 6.68464 24.8366 7.12119 25.0308 7.51257H25.0673C25.2311 7.15731 25.4496 6.72679 25.7227 6.221C25.8198 6.05842 25.9503 5.82961 26.1141 5.53457L28.6721 1.11792H29.6553L25.4223 8.199V13.5821H24.5302V8.18094L20.543 1.11792Z" fill="white"/>
<path d="M9.14734 1.85854V1.11792H18.2505V1.85854H14.145V13.5821H13.2529V1.85854H9.14734Z" fill="white"/>
<path d="M0 12.9318L0.336818 12.2092C1.13183 12.7511 2.04518 13.0251 3.07688 13.0311C5.10385 13.0311 6.11734 12.1671 6.11734 10.4389C6.11734 9.14436 5.26468 8.17492 3.55935 7.53064C2.50338 7.1513 1.71443 6.69669 1.19252 6.16681C0.622051 5.60081 0.336818 4.90835 0.336818 4.08945C0.336818 3.17421 0.679705 2.41552 1.36548 1.81339C2.05125 1.2233 2.92516 0.928253 3.9872 0.928253C4.53339 0.928253 5.04317 0.991477 5.51653 1.11793C5.91707 1.21427 6.24175 1.34372 6.49057 1.5063L6.15376 2.26499C5.94135 2.11446 5.66825 1.985 5.33447 1.87661C4.88538 1.73812 4.41808 1.66888 3.93258 1.66888C3.01012 1.66888 2.30311 1.92779 1.81153 2.44563C1.41099 2.86712 1.21072 3.36689 1.21072 3.94494C1.21072 5.1191 2.0816 6.04337 3.82334 6.71776C4.91572 7.16334 5.70467 7.63903 6.19017 8.14482C6.72422 8.72287 6.99125 9.45747 6.99125 10.3486C6.99125 11.312 6.6605 12.1069 5.999 12.7331C5.28288 13.4195 4.29671 13.7627 3.04047 13.7627C3.02833 13.7627 3.01619 13.7627 3.00405 13.7627C1.75995 13.7627 0.758599 13.4857 0 12.9318Z" fill="white"/>
</svg>
